<?xml version="1.0" encoding="utf-8"?>
<!-- Generator: Adobe Illustrator 15.1.0, SVG Export Plug-In . SVG Version: 6.00 Build 0)  -->
<!DOCTYPE svg PUBLIC "-//W3C//DTD SVG 1.1//EN" "http://www.w3.org/Graphics/SVG/1.1/DTD/svg11.dtd">
<svg version="1.1" id="Layer_1" xmlns="http://www.w3.org/2000/svg" xmlns:xlink="http://www.w3.org/1999/xlink" x="0px" y="0px"
	 width="500px" height="500px" viewBox="78.64 152.445 500 500" enable-background="new 78.64 152.445 500 500"
	 xml:space="preserve">
<g>
	<g>
		<path fill="#FFFFFF" d="M230.796,401.986c0-99.356,43.918-188.448,113.391-248.945c0.112-0.198,0.233-0.395,0.346-0.592
			c-137.559,0.308-248.979,111.91-248.979,249.538c0,137.669,111.474,249.287,249.083,249.539c-0.082-0.139-0.166-0.273-0.246-0.412
			C274.8,590.611,230.796,501.441,230.796,401.986z"/>
		<path fill="#FFFFFF" d="M344.86,152.445c-0.11,0-0.217,0.004-0.327,0.004c-0.112,0.198-0.233,0.394-0.346,0.592
			C344.412,152.843,344.633,152.641,344.86,152.445z"/>
		<path fill="#FFFFFF" d="M344.391,651.113c0.08,0.139,0.164,0.273,0.246,0.412c0.078,0.004,0.152,0.004,0.229,0.004
			C344.705,651.392,344.55,651.251,344.391,651.113z"/>
		<path fill="#FFFFFF" d="M560.929,527.31c-0.125-0.213-0.257-0.422-0.38-0.639c-92.284-0.072-172.843-50.236-215.959-124.77
			c-21.235,36.702-33.396,79.319-33.396,124.77c0,45.316,12.081,87.811,33.196,124.443c0.159,0.137,0.314,0.277,0.475,0.414
			c0.081,0.002,0.157,0.002,0.238,0.002C437.238,651.531,517.701,601.595,560.929,527.31z"/>
		<path fill="#FFFFFF" d="M560.549,526.671c0.123,0.217,0.255,0.426,0.38,0.639c0.124-0.213,0.258-0.426,0.383-0.645
			c-0.188,0-0.379,0.006-0.568,0.006C560.676,526.671,560.615,526.671,560.549,526.671z"/>
	</g>
</g>
</svg>
